<svg width="30" height="34" viewBox="0 0 30 34" fill="none" xmlns="http://www.w3.org/2000/svg">
<path d="M27.7843 27.2743C29.2323 24.8659 29.858 19.8672 28.4974 16.2582C27.6315 13.9663 26.1108 12.4601 23.9789 11.7834L23.8115 11.7325L23.7388 11.5651C23.6587 11.3687 23.7242 11.245 24.0371 10.6847C25.5069 8.02163 27.1149 4.28897 24.0735 2.59363C23.1203 2.06247 22.1599 2.01881 21.2285 2.45538C18.922 3.53225 17.2484 7.19943 16.8483 9.33861C16.7464 9.87705 16.6882 10.1754 16.3317 10.1463C15.9751 10.1099 15.9751 9.90615 15.9751 9.05484C15.9751 7.11939 15.9678 1.24026 13.3703 0.803692C13.0792 0.752759 12.8027 0.730927 12.5335 0.730927C11.7622 0.730927 11.1147 0.934659 10.5617 1.35668C9.1501 2.41899 8.30606 4.87833 7.80401 9.31679L7.7749 9.57873L7.51297 9.62967C7.33106 9.66605 3.10361 10.5465 1.52469 15.9163C-0.0615144 21.3079 1.02263 24.6622 2.20865 26.5322C4.23142 29.7118 8.85905 33.0661 15.7205 32.9133C23.8989 32.7387 25.8052 30.5631 27.7843 27.267V27.2743ZM20.45 24.9096C19.2494 24.9096 18.2671 23.9273 18.2671 22.7267C18.2671 21.5262 19.2494 20.5439 20.45 20.5439C21.6505 20.5439 22.6328 21.5262 22.6328 22.7267C22.6328 23.9273 21.6505 24.9096 20.45 24.9096ZM21.5414 4.17255C22.4 3.60501 23.7242 3.44494 24.4518 4.90017C25.0558 6.10801 23.1421 9.81156 22.4873 11.0194C22.3563 11.2595 22.1016 11.405 21.8324 11.3905C20.6537 11.3396 17.7505 10.8302 17.9106 9.99347C17.9106 9.99347 19.3658 5.62778 21.5486 4.17255H21.5414ZM15.1165 23.5417L16.3826 23.7599C16.5572 23.7891 16.6372 23.9928 16.5281 24.131L15.8733 24.9896C15.7714 25.1206 15.5677 25.106 15.4876 24.9605L14.8764 23.8836C14.7818 23.7163 14.9273 23.5053 15.1165 23.5417ZM10.991 2.99381C12.0824 1.9897 13.0428 2.16434 13.5376 2.71732C14.1925 3.45221 14.9928 8.53824 14.2652 9.26586C13.5376 9.99347 9.17193 10.3573 9.17193 9.44776C9.17193 9.44776 9.89954 3.99792 10.991 2.99381ZM10.991 24.182C9.7904 24.182 8.80812 23.1997 8.80812 21.9991C8.80812 20.7986 9.7904 19.8163 10.991 19.8163C12.1915 19.8163 13.1738 20.7986 13.1738 21.9991C13.1738 23.1997 12.1915 24.182 10.991 24.182ZM13.8796 28.0238C13.7413 28.1693 13.5158 28.1766 13.363 28.0383C13.2175 27.9001 13.2102 27.6745 13.3411 27.529C13.363 27.5072 15.3203 25.4407 17.9324 27.4926C18.0925 27.6163 18.1216 27.8419 17.9906 28.0019C17.9179 28.0965 17.8087 28.1402 17.7068 28.1402C17.6268 28.1402 17.5468 28.1184 17.4813 28.0602C15.4076 26.4303 13.9378 27.9583 13.8723 28.0238H13.8796Z" fill="#FFF8E6"/>
<path d="M29.1741 16.0036C28.2864 13.6679 26.7074 12.0235 24.5755 11.2231C24.6119 11.1649 24.641 11.0994 24.6774 11.034C25.6087 9.34589 28.4537 4.19438 24.43 1.95333C23.2586 1.30575 22.0798 1.24754 20.9229 1.79325C18.9729 2.71004 17.474 5.16211 16.6736 7.32313C16.5718 4.55819 16.0624 0.512643 13.4867 0.0833499C12.1551 -0.142211 11.0201 0.090635 10.1251 0.774593C8.55345 1.96061 7.64392 4.42722 7.11276 8.98209C6.07227 9.26586 2.32507 10.6265 0.826179 15.7198C-0.840059 21.3734 0.324123 24.9387 1.59745 26.9323C2.61611 28.5258 6.55978 33.6555 15.2621 33.6555C15.4221 33.6555 15.5822 33.6555 15.7423 33.6555C23.5569 33.4882 26.0599 31.5891 28.4173 27.66C29.9453 25.1206 30.6729 19.94 29.1886 16.0181L29.1741 16.0036ZM2.20864 26.5394C1.02263 24.6695 -0.061517 21.3152 1.52468 15.9235C3.10361 10.5537 7.33106 9.67332 7.51296 9.63694L7.77489 9.58601L7.804 9.32407C8.29878 4.88562 9.1501 2.43355 10.5617 1.36396C11.1147 0.941943 11.7622 0.73821 12.5335 0.73821C12.7954 0.73821 13.0792 0.760032 13.3703 0.810965C15.9678 1.24753 15.9751 7.12667 15.9751 9.06213C15.9751 9.92071 15.9751 10.1244 16.3317 10.1535C16.6882 10.1899 16.7464 9.89161 16.8483 9.3459C17.2557 7.20671 18.9292 3.53952 21.2285 2.46265C22.1599 2.02608 23.1203 2.06974 24.0735 2.6009C27.1149 4.28897 25.5142 8.02891 24.0371 10.692C23.7242 11.2595 23.6587 11.3759 23.7388 11.5724L23.8115 11.7397L23.9789 11.7907C26.1108 12.4674 27.6315 13.9735 28.4974 16.2655C29.858 19.8745 29.2323 24.8732 27.7843 27.2816C25.8052 30.5777 23.8988 32.7533 15.7205 32.9279C8.85905 33.0807 4.23141 29.7264 2.20864 26.5467V26.5394Z" fill="#1D1D1B"/>
<path d="M20.45 24.182C21.2537 24.182 21.9052 23.5304 21.9052 22.7267C21.9052 21.923 21.2537 21.2715 20.45 21.2715C19.6463 21.2715 18.9948 21.923 18.9948 22.7267C18.9948 23.5304 19.6463 24.182 20.45 24.182Z" fill="#1D1D1B"/>
<path d="M20.4499 20.5439C19.2494 20.5439 18.2671 21.5262 18.2671 22.7267C18.2671 23.9273 19.2494 24.9096 20.4499 24.9096C21.6505 24.9096 22.6328 23.9273 22.6328 22.7267C22.6328 21.5262 21.6505 20.5439 20.4499 20.5439ZM20.4499 24.182C19.6496 24.182 18.9947 23.5271 18.9947 22.7267C18.9947 21.9264 19.6496 21.2715 20.4499 21.2715C21.2503 21.2715 21.9052 21.9264 21.9052 22.7267C21.9052 23.5271 21.2503 24.182 20.4499 24.182Z" fill="#1D1D1B"/>
<path d="M10.991 23.4543C11.7947 23.4543 12.4462 22.8028 12.4462 21.9991C12.4462 21.1954 11.7947 20.5439 10.991 20.5439C10.1873 20.5439 9.53577 21.1954 9.53577 21.9991C9.53577 22.8028 10.1873 23.4543 10.991 23.4543Z" fill="#1D1D1B"/>
<path d="M10.991 19.8163C9.79039 19.8163 8.80811 20.7985 8.80811 21.9991C8.80811 23.1997 9.79039 24.182 10.991 24.182C12.1915 24.182 13.1738 23.1997 13.1738 21.9991C13.1738 20.7985 12.1915 19.8163 10.991 19.8163ZM10.991 23.4543C10.1906 23.4543 9.53572 22.7995 9.53572 21.9991C9.53572 21.1987 10.1906 20.5439 10.991 20.5439C11.7913 20.5439 12.4462 21.1987 12.4462 21.9991C12.4462 22.7995 11.7913 23.4543 10.991 23.4543Z" fill="#1D1D1B"/>
<path d="M17.7142 28.1402C17.8233 28.1402 17.9325 28.0892 17.998 28.0019C18.1217 27.8419 18.0925 27.6163 17.9397 27.4926C15.3276 25.4407 13.3703 27.5144 13.3485 27.529C13.2103 27.6745 13.2248 27.9073 13.3703 28.0383C13.5159 28.1766 13.7487 28.1693 13.8869 28.0238C13.9524 27.9583 15.4222 26.4376 17.4959 28.0601C17.5614 28.1111 17.6414 28.1402 17.7215 28.1402H17.7142Z" fill="#1D1D1B"/>
<path d="M15.4876 24.9605C15.5677 25.106 15.7714 25.1206 15.8733 24.9896L16.5281 24.131C16.6373 23.9928 16.5572 23.789 16.3826 23.7599L15.1165 23.5417C14.9201 23.5053 14.7746 23.7163 14.8764 23.8836L15.4876 24.9605Z" fill="#FFB6C1"/>
<path d="M14.2652 9.26585C14.9928 8.53823 14.1924 3.45221 13.5376 2.71732C13.0428 2.16433 12.0823 1.98969 10.9909 2.9938C9.89949 3.99791 9.17188 9.44775 9.17188 9.44775C9.17188 10.3573 13.5376 9.99346 14.2652 9.26585Z" fill="#FFB6C1"/>
<path d="M21.8324 11.3905C22.1089 11.405 22.3563 11.2595 22.4873 11.0194C23.1494 9.81156 25.0631 6.11529 24.4519 4.90017C23.7242 3.44494 22.4 3.60502 21.5414 4.17256C19.3585 5.62779 17.9033 9.99348 17.9033 9.99348C17.7432 10.823 20.6537 11.3396 21.8252 11.3905H21.8324Z" fill="#FFB6C1"/>
</svg>
